<?xml version="1.0" standalone="no"?>
<!DOCTYPE svg PUBLIC "-//W3C//DTD SVG 20010904//EN"
 "http://www.w3.org/TR/2001/REC-SVG-20010904/DTD/svg10.dtd">
<svg version="1.0" xmlns="http://www.w3.org/2000/svg"
 width="1920.000000pt" height="1080.000000pt" viewBox="0 0 1920.000000 1080.000000"
 preserveAspectRatio="xMidYMid meet">

<g transform="translate(0.000000,1080.000000) scale(0.100000,-0.100000)"
fill="#000000" stroke="none">
<path d="M1320 8925 l0 -185 1350 0 1350 0 0 -1165 0 -1165 -1350 0 -1350 0 0
-190 0 -190 1350 0 1350 0 0 -165 0 -165 190 0 190 0 0 1705 0 1705 -1540 0
-1540 0 0 -185z"/>
<path d="M5760 8925 l0 -185 1010 0 1010 0 0 -170 0 -170 355 0 355 0 0 190 0
190 -335 0 -335 0 0 165 0 165 -1030 0 -1030 0 0 -185z"/>
<path d="M9850 8250 l0 -190 845 0 845 0 -2 -822 -3 -823 -1012 -3 -1013 -2 0
-190 0 -190 1540 0 1540 0 0 190 0 190 -337 2 -338 3 -3 1013 -2 1012 -1030 0
-1030 0 0 -190z"/>
<path d="M5760 7915 l0 -185 670 0 670 0 0 -170 0 -170 525 0 525 0 0 185 0
185 -502 2 -503 3 -3 168 -2 167 -690 0 -690 0 0 -185z"/>
<path d="M5420 6560 l0 -190 1010 0 1010 0 0 -170 0 -170 525 0 525 0 0 190 0
190 -505 0 -505 0 0 170 0 170 -1030 0 -1030 0 0 -190z"/>
<path d="M17130 4380 l0 -170 -1515 0 -1515 0 0 -185 0 -185 1348 -2 1347 -3
3 -317 2 -318 -170 0 -170 0 0 -340 0 -340 -170 0 -170 0 0 -165 0 -165 -165
0 -165 0 0 -170 0 -170 -170 0 -170 0 0 -170 0 -170 -505 0 -505 0 0 -190 0
-190 525 0 525 0 0 170 0 170 170 0 170 0 0 170 0 170 165 0 165 0 0 170 0
170 170 0 170 0 0 165 0 165 170 0 170 0 0 340 0 340 335 0 335 0 0 170 0 170
170 0 170 0 0 355 0 355 -170 0 -170 0 0 170 0 170 -190 0 -190 0 0 -170z
m338 -527 l-3 -318 -145 0 -145 0 -3 318 -2 317 150 0 150 0 -2 -317z"/>
<path d="M6070 4025 l0 -185 1520 0 1520 0 0 -155 0 -155 -170 0 -170 0 0
-335 0 -335 -170 0 -170 0 0 -170 0 -170 -165 0 -165 0 0 -165 0 -165 -320 0
-320 0 0 165 0 165 -165 0 -165 0 0 170 0 170 -190 0 -190 0 0 -190 0 -190
170 0 170 0 0 -165 0 -165 165 0 165 0 0 -170 0 -170 170 0 170 0 0 -170 0
-170 170 0 170 0 0 -170 0 -170 185 0 185 0 0 190 0 190 -165 0 -165 0 0 320
0 320 165 0 165 0 0 165 0 165 170 0 170 0 0 170 0 170 170 0 170 0 2 338 3
337 168 3 167 2 0 355 0 355 -1710 0 -1710 0 0 -185z"/>
<path d="M10510 3175 l0 -355 170 0 170 0 0 -170 0 -170 185 0 185 0 0 190 0
190 -165 0 -165 0 0 335 0 335 -190 0 -190 0 0 -355z"/>
<path d="M11520 3175 l0 -355 170 0 170 0 0 -170 0 -170 185 0 185 0 0 190 0
190 -165 0 -165 0 0 335 0 335 -190 0 -190 0 0 -355z"/>
<path d="M12870 3195 l0 -335 -170 0 -170 0 0 -335 0 -335 -170 0 -170 0 0
-340 0 -340 -335 0 -335 0 -2 -167 -3 -168 -332 -3 -333 -2 0 -185 0 -185 355
0 355 0 0 165 0 165 335 0 335 0 0 170 0 170 170 0 170 0 0 340 0 340 170 0
170 0 0 335 0 335 170 0 170 0 0 355 0 355 -190 0 -190 0 0 -335z"/>
</g>
</svg>
